<mxfile host="app.diagrams.net" agent="Mozilla/5.0 (Windows NT 10.0; Win64; x64) AppleWebKit/537.36 (KHTML, like Gecko) Chrome/134.0.0.0 Safari/537.36" version="26.1.3">
  <diagram name="1 oldal" id="F2Vj27kA41SZQ0UNzV0-">
    <mxGraphModel dx="2927" dy="2283" grid="1" gridSize="10" guides="1" tooltips="1" connect="1" arrows="1" fold="1" page="1" pageScale="1" pageWidth="827" pageHeight="1169" math="0" shadow="0">
      <root>
        <mxCell id="0" />
        <mxCell id="1" parent="0" />
        <mxCell id="nWkcbd3g35BIflJlZbBs-1" value="Attribute" style="ellipse;whiteSpace=wrap;html=1;align=center;" vertex="1" parent="1">
          <mxGeometry x="1330" y="-110" width="100" height="40" as="geometry" />
        </mxCell>
        <mxCell id="nWkcbd3g35BIflJlZbBs-2" value="Etterem" style="ellipse;shape=doubleEllipse;margin=3;whiteSpace=wrap;html=1;align=center;" vertex="1" parent="1">
          <mxGeometry x="90" y="180" width="100" height="40" as="geometry" />
        </mxCell>
        <mxCell id="nWkcbd3g35BIflJlZbBs-3" value="Foszakacs" style="ellipse;shape=doubleEllipse;margin=3;whiteSpace=wrap;html=1;align=center;" vertex="1" parent="1">
          <mxGeometry x="470" y="180" width="100" height="40" as="geometry" />
        </mxCell>
        <mxCell id="nWkcbd3g35BIflJlZbBs-4" value="Gyakornok" style="ellipse;shape=doubleEllipse;margin=3;whiteSpace=wrap;html=1;align=center;" vertex="1" parent="1">
          <mxGeometry x="1241" y="190" width="100" height="40" as="geometry" />
        </mxCell>
        <mxCell id="nWkcbd3g35BIflJlZbBs-5" value="Szakacs" style="ellipse;shape=doubleEllipse;margin=3;whiteSpace=wrap;html=1;align=center;" vertex="1" parent="1">
          <mxGeometry x="870" y="190" width="100" height="40" as="geometry" />
        </mxCell>
        <mxCell id="nWkcbd3g35BIflJlZbBs-6" value="Vendeg" style="ellipse;shape=doubleEllipse;margin=3;whiteSpace=wrap;html=1;align=center;" vertex="1" parent="1">
          <mxGeometry x="1700" y="210" width="100" height="40" as="geometry" />
        </mxCell>
        <mxCell id="nWkcbd3g35BIflJlZbBs-7" value="&lt;u&gt;Ekod&lt;/u&gt;" style="shape=rhombus;perimeter=rhombusPerimeter;whiteSpace=wrap;html=1;align=center;" vertex="1" parent="1">
          <mxGeometry x="-80" y="210" width="70" height="60" as="geometry" />
        </mxCell>
        <mxCell id="nWkcbd3g35BIflJlZbBs-8" value="Nev" style="ellipse;whiteSpace=wrap;html=1;align=center;" vertex="1" parent="1">
          <mxGeometry x="-80" y="330" width="90" height="40" as="geometry" />
        </mxCell>
        <mxCell id="nWkcbd3g35BIflJlZbBs-9" value="Cim" style="ellipse;whiteSpace=wrap;html=1;align=center;" vertex="1" parent="1">
          <mxGeometry x="90" y="340" width="90" height="40" as="geometry" />
        </mxCell>
        <mxCell id="nWkcbd3g35BIflJlZbBs-10" value="Csillag" style="ellipse;whiteSpace=wrap;html=1;align=center;" vertex="1" parent="1">
          <mxGeometry x="250" y="330" width="90" height="40" as="geometry" />
        </mxCell>
        <mxCell id="nWkcbd3g35BIflJlZbBs-11" value="Varos" style="ellipse;whiteSpace=wrap;html=1;align=center;" vertex="1" parent="1">
          <mxGeometry x="10" y="450" width="90" height="40" as="geometry" />
        </mxCell>
        <mxCell id="nWkcbd3g35BIflJlZbBs-12" value="Utca" style="ellipse;whiteSpace=wrap;html=1;align=center;" vertex="1" parent="1">
          <mxGeometry x="100" y="460" width="90" height="40" as="geometry" />
        </mxCell>
        <mxCell id="nWkcbd3g35BIflJlZbBs-13" value="Hazszam" style="ellipse;whiteSpace=wrap;html=1;align=center;" vertex="1" parent="1">
          <mxGeometry x="190" y="450" width="90" height="40" as="geometry" />
        </mxCell>
        <mxCell id="nWkcbd3g35BIflJlZbBs-16" value="" style="rounded=0;whiteSpace=wrap;html=1;" vertex="1" parent="1">
          <mxGeometry x="40" y="530" width="30" height="50" as="geometry" />
        </mxCell>
        <mxCell id="nWkcbd3g35BIflJlZbBs-17" value="" style="rounded=0;whiteSpace=wrap;html=1;" vertex="1" parent="1">
          <mxGeometry x="130" y="535" width="30" height="50" as="geometry" />
        </mxCell>
        <mxCell id="nWkcbd3g35BIflJlZbBs-18" value="" style="rounded=0;whiteSpace=wrap;html=1;" vertex="1" parent="1">
          <mxGeometry x="220" y="530" width="30" height="50" as="geometry" />
        </mxCell>
        <mxCell id="nWkcbd3g35BIflJlZbBs-19" value="" style="rounded=0;whiteSpace=wrap;html=1;" vertex="1" parent="1">
          <mxGeometry x="-50" y="410" width="30" height="50" as="geometry" />
        </mxCell>
        <mxCell id="nWkcbd3g35BIflJlZbBs-20" value="" style="rounded=0;whiteSpace=wrap;html=1;" vertex="1" parent="1">
          <mxGeometry x="280" y="395" width="30" height="50" as="geometry" />
        </mxCell>
        <mxCell id="nWkcbd3g35BIflJlZbBs-21" value="&lt;u&gt;Fkod&lt;/u&gt;" style="shape=rhombus;perimeter=rhombusPerimeter;whiteSpace=wrap;html=1;align=center;" vertex="1" parent="1">
          <mxGeometry x="365" y="230" width="70" height="60" as="geometry" />
        </mxCell>
        <mxCell id="nWkcbd3g35BIflJlZbBs-22" value="&lt;u&gt;E_F&lt;/u&gt;" style="shape=rhombus;perimeter=rhombusPerimeter;whiteSpace=wrap;html=1;align=center;" vertex="1" parent="1">
          <mxGeometry x="610" y="240" width="70" height="60" as="geometry" />
        </mxCell>
        <mxCell id="nWkcbd3g35BIflJlZbBs-23" value="Nev" style="ellipse;whiteSpace=wrap;html=1;align=center;" vertex="1" parent="1">
          <mxGeometry x="390" y="340" width="90" height="40" as="geometry" />
        </mxCell>
        <mxCell id="nWkcbd3g35BIflJlZbBs-24" value="Eletkor" style="ellipse;whiteSpace=wrap;html=1;align=center;" vertex="1" parent="1">
          <mxGeometry x="500" y="340" width="90" height="40" as="geometry" />
        </mxCell>
        <mxCell id="nWkcbd3g35BIflJlZbBs-26" value="&lt;u&gt;Szkod&lt;/u&gt;" style="shape=rhombus;perimeter=rhombusPerimeter;whiteSpace=wrap;html=1;align=center;" vertex="1" parent="1">
          <mxGeometry x="780" y="250" width="70" height="60" as="geometry" />
        </mxCell>
        <mxCell id="nWkcbd3g35BIflJlZbBs-27" value="&lt;u&gt;E_Sz&lt;/u&gt;" style="shape=rhombus;perimeter=rhombusPerimeter;whiteSpace=wrap;html=1;align=center;" vertex="1" parent="1">
          <mxGeometry x="1000" y="250" width="70" height="60" as="geometry" />
        </mxCell>
        <mxCell id="nWkcbd3g35BIflJlZbBs-28" value="Nev" style="ellipse;whiteSpace=wrap;html=1;align=center;" vertex="1" parent="1">
          <mxGeometry x="790" y="360" width="90" height="40" as="geometry" />
        </mxCell>
        <mxCell id="nWkcbd3g35BIflJlZbBs-29" value="Reszleg" style="ellipse;whiteSpace=wrap;html=1;align=center;" vertex="1" parent="1">
          <mxGeometry x="910" y="360" width="90" height="40" as="geometry" />
        </mxCell>
        <mxCell id="nWkcbd3g35BIflJlZbBs-31" value="Vegzettseg" style="ellipse;shape=doubleEllipse;margin=3;whiteSpace=wrap;html=1;align=center;" vertex="1" parent="1">
          <mxGeometry x="1020" y="360" width="100" height="40" as="geometry" />
        </mxCell>
        <mxCell id="nWkcbd3g35BIflJlZbBs-32" value="" style="rounded=0;whiteSpace=wrap;html=1;" vertex="1" parent="1">
          <mxGeometry x="820" y="430" width="30" height="50" as="geometry" />
        </mxCell>
        <mxCell id="nWkcbd3g35BIflJlZbBs-33" value="" style="rounded=0;whiteSpace=wrap;html=1;" vertex="1" parent="1">
          <mxGeometry x="940" y="420" width="30" height="50" as="geometry" />
        </mxCell>
        <mxCell id="nWkcbd3g35BIflJlZbBs-34" value="" style="rounded=0;whiteSpace=wrap;html=1;" vertex="1" parent="1">
          <mxGeometry x="1055" y="420" width="30" height="50" as="geometry" />
        </mxCell>
        <mxCell id="nWkcbd3g35BIflJlZbBs-35" value="" style="rounded=0;whiteSpace=wrap;html=1;" vertex="1" parent="1">
          <mxGeometry x="420" y="420" width="30" height="50" as="geometry" />
        </mxCell>
        <mxCell id="nWkcbd3g35BIflJlZbBs-36" value="" style="rounded=0;whiteSpace=wrap;html=1;" vertex="1" parent="1">
          <mxGeometry x="530" y="410" width="30" height="50" as="geometry" />
        </mxCell>
        <mxCell id="nWkcbd3g35BIflJlZbBs-37" value="" style="rounded=0;whiteSpace=wrap;html=1;" vertex="1" parent="1">
          <mxGeometry x="635" y="410" width="30" height="50" as="geometry" />
        </mxCell>
        <mxCell id="nWkcbd3g35BIflJlZbBs-38" value="" style="endArrow=none;html=1;rounded=0;exitX=0.5;exitY=1;exitDx=0;exitDy=0;entryX=0.5;entryY=0;entryDx=0;entryDy=0;" edge="1" parent="1" source="nWkcbd3g35BIflJlZbBs-5" target="nWkcbd3g35BIflJlZbBs-27">
          <mxGeometry width="50" height="50" relative="1" as="geometry">
            <mxPoint x="1030" y="270" as="sourcePoint" />
            <mxPoint x="1080" y="220" as="targetPoint" />
          </mxGeometry>
        </mxCell>
        <mxCell id="nWkcbd3g35BIflJlZbBs-39" value="" style="endArrow=none;html=1;rounded=0;exitX=0.5;exitY=0;exitDx=0;exitDy=0;entryX=0.5;entryY=1;entryDx=0;entryDy=0;" edge="1" parent="1" source="nWkcbd3g35BIflJlZbBs-26" target="nWkcbd3g35BIflJlZbBs-5">
          <mxGeometry width="50" height="50" relative="1" as="geometry">
            <mxPoint x="1030" y="270" as="sourcePoint" />
            <mxPoint x="1080" y="220" as="targetPoint" />
          </mxGeometry>
        </mxCell>
        <mxCell id="nWkcbd3g35BIflJlZbBs-40" value="" style="endArrow=none;html=1;rounded=0;exitX=0.5;exitY=0;exitDx=0;exitDy=0;entryX=0.5;entryY=1;entryDx=0;entryDy=0;" edge="1" parent="1" source="nWkcbd3g35BIflJlZbBs-28" target="nWkcbd3g35BIflJlZbBs-5">
          <mxGeometry width="50" height="50" relative="1" as="geometry">
            <mxPoint x="1030" y="270" as="sourcePoint" />
            <mxPoint x="1080" y="220" as="targetPoint" />
          </mxGeometry>
        </mxCell>
        <mxCell id="nWkcbd3g35BIflJlZbBs-42" value="&lt;u&gt;Gykod&lt;/u&gt;" style="shape=rhombus;perimeter=rhombusPerimeter;whiteSpace=wrap;html=1;align=center;" vertex="1" parent="1">
          <mxGeometry x="1150" y="240" width="70" height="60" as="geometry" />
        </mxCell>
        <mxCell id="nWkcbd3g35BIflJlZbBs-43" value="&lt;u&gt;E_Gy&lt;/u&gt;" style="shape=rhombus;perimeter=rhombusPerimeter;whiteSpace=wrap;html=1;align=center;" vertex="1" parent="1">
          <mxGeometry x="1370" y="240" width="70" height="60" as="geometry" />
        </mxCell>
        <mxCell id="nWkcbd3g35BIflJlZbBs-44" value="Muszak" style="ellipse;shape=doubleEllipse;margin=3;whiteSpace=wrap;html=1;align=center;" vertex="1" parent="1">
          <mxGeometry x="1400" y="340" width="100" height="40" as="geometry" />
        </mxCell>
        <mxCell id="nWkcbd3g35BIflJlZbBs-45" value="Gyakorlat" style="ellipse;whiteSpace=wrap;html=1;align=center;" vertex="1" parent="1">
          <mxGeometry x="1270" y="340" width="90" height="40" as="geometry" />
        </mxCell>
        <mxCell id="nWkcbd3g35BIflJlZbBs-46" value="Nev" style="ellipse;whiteSpace=wrap;html=1;align=center;" vertex="1" parent="1">
          <mxGeometry x="1150" y="340" width="90" height="40" as="geometry" />
        </mxCell>
        <mxCell id="nWkcbd3g35BIflJlZbBs-47" value="Kezdete" style="ellipse;whiteSpace=wrap;html=1;align=center;" vertex="1" parent="1">
          <mxGeometry x="1200" y="450" width="90" height="40" as="geometry" />
        </mxCell>
        <mxCell id="nWkcbd3g35BIflJlZbBs-48" value="Idotartam" style="ellipse;whiteSpace=wrap;html=1;align=center;" vertex="1" parent="1">
          <mxGeometry x="1320" y="445" width="90" height="40" as="geometry" />
        </mxCell>
        <mxCell id="nWkcbd3g35BIflJlZbBs-49" value="" style="rounded=0;whiteSpace=wrap;html=1;" vertex="1" parent="1">
          <mxGeometry x="1180" y="400" width="30" height="50" as="geometry" />
        </mxCell>
        <mxCell id="nWkcbd3g35BIflJlZbBs-50" value="" style="rounded=0;whiteSpace=wrap;html=1;" vertex="1" parent="1">
          <mxGeometry x="1435" y="410" width="30" height="50" as="geometry" />
        </mxCell>
        <mxCell id="nWkcbd3g35BIflJlZbBs-51" value="" style="rounded=0;whiteSpace=wrap;html=1;" vertex="1" parent="1">
          <mxGeometry x="1230" y="530" width="30" height="50" as="geometry" />
        </mxCell>
        <mxCell id="nWkcbd3g35BIflJlZbBs-52" value="" style="rounded=0;whiteSpace=wrap;html=1;" vertex="1" parent="1">
          <mxGeometry x="1350" y="530" width="30" height="50" as="geometry" />
        </mxCell>
        <mxCell id="nWkcbd3g35BIflJlZbBs-53" value="" style="endArrow=none;html=1;rounded=0;entryX=0.5;entryY=1;entryDx=0;entryDy=0;exitX=0.5;exitY=0;exitDx=0;exitDy=0;" edge="1" parent="1" source="nWkcbd3g35BIflJlZbBs-29" target="nWkcbd3g35BIflJlZbBs-5">
          <mxGeometry width="50" height="50" relative="1" as="geometry">
            <mxPoint x="1100" y="380" as="sourcePoint" />
            <mxPoint x="1150" y="330" as="targetPoint" />
          </mxGeometry>
        </mxCell>
        <mxCell id="nWkcbd3g35BIflJlZbBs-54" value="&lt;u&gt;Vkod&lt;/u&gt;" style="shape=rhombus;perimeter=rhombusPerimeter;whiteSpace=wrap;html=1;align=center;" vertex="1" parent="1">
          <mxGeometry x="1540" y="260" width="70" height="60" as="geometry" />
        </mxCell>
        <mxCell id="nWkcbd3g35BIflJlZbBs-55" value="Nev" style="ellipse;whiteSpace=wrap;html=1;align=center;" vertex="1" parent="1">
          <mxGeometry x="1630" y="340" width="90" height="40" as="geometry" />
        </mxCell>
        <mxCell id="nWkcbd3g35BIflJlZbBs-56" value="Eletkor" style="ellipse;whiteSpace=wrap;html=1;align=center;" vertex="1" parent="1">
          <mxGeometry x="1790" y="350" width="90" height="40" as="geometry" />
        </mxCell>
        <mxCell id="nWkcbd3g35BIflJlZbBs-57" value="Cim" style="ellipse;whiteSpace=wrap;html=1;align=center;" vertex="1" parent="1">
          <mxGeometry x="2010" y="360" width="90" height="40" as="geometry" />
        </mxCell>
        <mxCell id="nWkcbd3g35BIflJlZbBs-58" value="Varos" style="ellipse;whiteSpace=wrap;html=1;align=center;" vertex="1" parent="1">
          <mxGeometry x="1900" y="460" width="90" height="40" as="geometry" />
        </mxCell>
        <mxCell id="nWkcbd3g35BIflJlZbBs-59" value="Utca" style="ellipse;whiteSpace=wrap;html=1;align=center;" vertex="1" parent="1">
          <mxGeometry x="2010" y="460" width="90" height="40" as="geometry" />
        </mxCell>
        <mxCell id="nWkcbd3g35BIflJlZbBs-60" value="Hazszam" style="ellipse;whiteSpace=wrap;html=1;align=center;" vertex="1" parent="1">
          <mxGeometry x="2110" y="465" width="90" height="40" as="geometry" />
        </mxCell>
        <mxCell id="nWkcbd3g35BIflJlZbBs-61" value="" style="rounded=0;whiteSpace=wrap;html=1;" vertex="1" parent="1">
          <mxGeometry x="1660" y="425" width="30" height="50" as="geometry" />
        </mxCell>
        <mxCell id="nWkcbd3g35BIflJlZbBs-62" value="" style="rounded=0;whiteSpace=wrap;html=1;" vertex="1" parent="1">
          <mxGeometry x="1820" y="425" width="30" height="50" as="geometry" />
        </mxCell>
        <mxCell id="nWkcbd3g35BIflJlZbBs-63" value="" style="rounded=0;whiteSpace=wrap;html=1;" vertex="1" parent="1">
          <mxGeometry x="1930" y="530" width="30" height="50" as="geometry" />
        </mxCell>
        <mxCell id="nWkcbd3g35BIflJlZbBs-64" value="" style="rounded=0;whiteSpace=wrap;html=1;" vertex="1" parent="1">
          <mxGeometry x="2040" y="530" width="30" height="50" as="geometry" />
        </mxCell>
        <mxCell id="nWkcbd3g35BIflJlZbBs-65" value="" style="rounded=0;whiteSpace=wrap;html=1;" vertex="1" parent="1">
          <mxGeometry x="2140" y="535" width="30" height="50" as="geometry" />
        </mxCell>
        <mxCell id="nWkcbd3g35BIflJlZbBs-66" value="Rendeles" style="ellipse;shape=doubleEllipse;margin=3;whiteSpace=wrap;html=1;align=center;" vertex="1" parent="1">
          <mxGeometry x="2400" y="220" width="100" height="40" as="geometry" />
        </mxCell>
        <mxCell id="nWkcbd3g35BIflJlZbBs-67" value="&lt;u&gt;E_V_V&lt;/u&gt;" style="shape=rhombus;perimeter=rhombusPerimeter;whiteSpace=wrap;html=1;align=center;" vertex="1" parent="1">
          <mxGeometry x="2240" y="290" width="70" height="60" as="geometry" />
        </mxCell>
        <mxCell id="nWkcbd3g35BIflJlZbBs-68" value="Osszeg" style="ellipse;whiteSpace=wrap;html=1;align=center;" vertex="1" parent="1">
          <mxGeometry x="2370" y="350" width="90" height="40" as="geometry" />
        </mxCell>
        <mxCell id="nWkcbd3g35BIflJlZbBs-69" value="Etel" style="ellipse;whiteSpace=wrap;html=1;align=center;" vertex="1" parent="1">
          <mxGeometry x="2510" y="340" width="90" height="40" as="geometry" />
        </mxCell>
        <mxCell id="nWkcbd3g35BIflJlZbBs-70" value="" style="rounded=0;whiteSpace=wrap;html=1;" vertex="1" parent="1">
          <mxGeometry x="2400" y="430" width="30" height="50" as="geometry" />
        </mxCell>
        <mxCell id="nWkcbd3g35BIflJlZbBs-71" value="" style="rounded=0;whiteSpace=wrap;html=1;" vertex="1" parent="1">
          <mxGeometry x="2540" y="425" width="30" height="50" as="geometry" />
        </mxCell>
        <mxCell id="nWkcbd3g35BIflJlZbBs-72" value="&lt;u&gt;E_V_E&lt;/u&gt;" style="shape=rhombus;perimeter=rhombusPerimeter;whiteSpace=wrap;html=1;align=center;" vertex="1" parent="1">
          <mxGeometry x="2640" y="280" width="70" height="60" as="geometry" />
        </mxCell>
        <mxCell id="nWkcbd3g35BIflJlZbBs-73" value="" style="endArrow=none;html=1;rounded=0;entryX=0.5;entryY=1;entryDx=0;entryDy=0;exitX=0.5;exitY=0;exitDx=0;exitDy=0;" edge="1" parent="1" source="nWkcbd3g35BIflJlZbBs-68" target="nWkcbd3g35BIflJlZbBs-66">
          <mxGeometry width="50" height="50" relative="1" as="geometry">
            <mxPoint x="2510" y="410" as="sourcePoint" />
            <mxPoint x="2560" y="360" as="targetPoint" />
          </mxGeometry>
        </mxCell>
        <mxCell id="nWkcbd3g35BIflJlZbBs-74" value="" style="endArrow=none;html=1;rounded=0;entryX=0.5;entryY=1;entryDx=0;entryDy=0;exitX=0.5;exitY=0;exitDx=0;exitDy=0;" edge="1" parent="1" source="nWkcbd3g35BIflJlZbBs-69" target="nWkcbd3g35BIflJlZbBs-66">
          <mxGeometry width="50" height="50" relative="1" as="geometry">
            <mxPoint x="2510" y="410" as="sourcePoint" />
            <mxPoint x="2560" y="360" as="targetPoint" />
          </mxGeometry>
        </mxCell>
        <mxCell id="nWkcbd3g35BIflJlZbBs-75" value="" style="endArrow=none;html=1;rounded=0;entryX=1;entryY=0;entryDx=0;entryDy=0;exitX=0;exitY=0.5;exitDx=0;exitDy=0;" edge="1" parent="1" source="nWkcbd3g35BIflJlZbBs-66" target="nWkcbd3g35BIflJlZbBs-67">
          <mxGeometry width="50" height="50" relative="1" as="geometry">
            <mxPoint x="2425" y="360" as="sourcePoint" />
            <mxPoint x="2460" y="270" as="targetPoint" />
          </mxGeometry>
        </mxCell>
        <mxCell id="nWkcbd3g35BIflJlZbBs-76" value="" style="endArrow=none;html=1;rounded=0;entryX=1;entryY=0.5;entryDx=0;entryDy=0;exitX=0;exitY=0;exitDx=0;exitDy=0;" edge="1" parent="1" source="nWkcbd3g35BIflJlZbBs-72" target="nWkcbd3g35BIflJlZbBs-66">
          <mxGeometry width="50" height="50" relative="1" as="geometry">
            <mxPoint x="2435" y="370" as="sourcePoint" />
            <mxPoint x="2470" y="280" as="targetPoint" />
          </mxGeometry>
        </mxCell>
        <mxCell id="nWkcbd3g35BIflJlZbBs-77" value="" style="endArrow=none;html=1;rounded=0;entryX=0.5;entryY=1;entryDx=0;entryDy=0;exitX=0.5;exitY=0;exitDx=0;exitDy=0;" edge="1" parent="1" source="nWkcbd3g35BIflJlZbBs-70" target="nWkcbd3g35BIflJlZbBs-68">
          <mxGeometry width="50" height="50" relative="1" as="geometry">
            <mxPoint x="2445" y="380" as="sourcePoint" />
            <mxPoint x="2480" y="290" as="targetPoint" />
          </mxGeometry>
        </mxCell>
        <mxCell id="nWkcbd3g35BIflJlZbBs-78" value="" style="endArrow=none;html=1;rounded=0;entryX=0.5;entryY=1;entryDx=0;entryDy=0;exitX=0.5;exitY=0;exitDx=0;exitDy=0;" edge="1" parent="1" source="nWkcbd3g35BIflJlZbBs-71" target="nWkcbd3g35BIflJlZbBs-69">
          <mxGeometry width="50" height="50" relative="1" as="geometry">
            <mxPoint x="2455" y="390" as="sourcePoint" />
            <mxPoint x="2490" y="300" as="targetPoint" />
          </mxGeometry>
        </mxCell>
        <mxCell id="nWkcbd3g35BIflJlZbBs-79" value="" style="endArrow=none;html=1;rounded=0;entryX=0.5;entryY=1;entryDx=0;entryDy=0;exitX=0.5;exitY=0;exitDx=0;exitDy=0;" edge="1" parent="1" source="nWkcbd3g35BIflJlZbBs-55" target="nWkcbd3g35BIflJlZbBs-6">
          <mxGeometry width="50" height="50" relative="1" as="geometry">
            <mxPoint x="1880" y="410" as="sourcePoint" />
            <mxPoint x="1930" y="360" as="targetPoint" />
          </mxGeometry>
        </mxCell>
        <mxCell id="nWkcbd3g35BIflJlZbBs-80" value="" style="endArrow=none;html=1;rounded=0;exitX=0.5;exitY=0;exitDx=0;exitDy=0;entryX=0.5;entryY=1;entryDx=0;entryDy=0;" edge="1" parent="1" source="nWkcbd3g35BIflJlZbBs-56" target="nWkcbd3g35BIflJlZbBs-6">
          <mxGeometry width="50" height="50" relative="1" as="geometry">
            <mxPoint x="1735" y="360" as="sourcePoint" />
            <mxPoint x="1760" y="260" as="targetPoint" />
          </mxGeometry>
        </mxCell>
        <mxCell id="nWkcbd3g35BIflJlZbBs-81" value="" style="endArrow=none;html=1;rounded=0;entryX=0.5;entryY=1;entryDx=0;entryDy=0;exitX=0.5;exitY=0;exitDx=0;exitDy=0;" edge="1" parent="1" source="nWkcbd3g35BIflJlZbBs-57" target="nWkcbd3g35BIflJlZbBs-6">
          <mxGeometry width="50" height="50" relative="1" as="geometry">
            <mxPoint x="1745" y="370" as="sourcePoint" />
            <mxPoint x="1770" y="270" as="targetPoint" />
          </mxGeometry>
        </mxCell>
        <mxCell id="nWkcbd3g35BIflJlZbBs-82" value="" style="endArrow=none;html=1;rounded=0;entryX=0.5;entryY=1;entryDx=0;entryDy=0;exitX=0.5;exitY=0;exitDx=0;exitDy=0;" edge="1" parent="1" source="nWkcbd3g35BIflJlZbBs-58" target="nWkcbd3g35BIflJlZbBs-57">
          <mxGeometry width="50" height="50" relative="1" as="geometry">
            <mxPoint x="1755" y="380" as="sourcePoint" />
            <mxPoint x="1780" y="280" as="targetPoint" />
          </mxGeometry>
        </mxCell>
        <mxCell id="nWkcbd3g35BIflJlZbBs-83" value="" style="endArrow=none;html=1;rounded=0;entryX=0.5;entryY=1;entryDx=0;entryDy=0;exitX=0.5;exitY=0;exitDx=0;exitDy=0;" edge="1" parent="1" source="nWkcbd3g35BIflJlZbBs-59" target="nWkcbd3g35BIflJlZbBs-57">
          <mxGeometry width="50" height="50" relative="1" as="geometry">
            <mxPoint x="1955" y="470" as="sourcePoint" />
            <mxPoint x="2065" y="410" as="targetPoint" />
          </mxGeometry>
        </mxCell>
        <mxCell id="nWkcbd3g35BIflJlZbBs-84" value="" style="endArrow=none;html=1;rounded=0;entryX=0.5;entryY=1;entryDx=0;entryDy=0;exitX=0.5;exitY=0;exitDx=0;exitDy=0;" edge="1" parent="1" source="nWkcbd3g35BIflJlZbBs-60" target="nWkcbd3g35BIflJlZbBs-57">
          <mxGeometry width="50" height="50" relative="1" as="geometry">
            <mxPoint x="1965" y="480" as="sourcePoint" />
            <mxPoint x="2075" y="420" as="targetPoint" />
          </mxGeometry>
        </mxCell>
        <mxCell id="nWkcbd3g35BIflJlZbBs-85" value="" style="endArrow=none;html=1;rounded=0;exitX=0.5;exitY=0;exitDx=0;exitDy=0;entryX=0.5;entryY=1;entryDx=0;entryDy=0;" edge="1" parent="1" source="nWkcbd3g35BIflJlZbBs-63" target="nWkcbd3g35BIflJlZbBs-58">
          <mxGeometry width="50" height="50" relative="1" as="geometry">
            <mxPoint x="1880" y="410" as="sourcePoint" />
            <mxPoint x="1930" y="360" as="targetPoint" />
          </mxGeometry>
        </mxCell>
        <mxCell id="nWkcbd3g35BIflJlZbBs-86" value="" style="endArrow=none;html=1;rounded=0;exitX=0.5;exitY=0;exitDx=0;exitDy=0;entryX=0.5;entryY=1;entryDx=0;entryDy=0;" edge="1" parent="1" source="nWkcbd3g35BIflJlZbBs-64" target="nWkcbd3g35BIflJlZbBs-59">
          <mxGeometry width="50" height="50" relative="1" as="geometry">
            <mxPoint x="1955" y="540" as="sourcePoint" />
            <mxPoint x="1955" y="510" as="targetPoint" />
          </mxGeometry>
        </mxCell>
        <mxCell id="nWkcbd3g35BIflJlZbBs-87" value="" style="endArrow=none;html=1;rounded=0;exitX=0.5;exitY=0;exitDx=0;exitDy=0;entryX=0.5;entryY=1;entryDx=0;entryDy=0;" edge="1" parent="1" source="nWkcbd3g35BIflJlZbBs-65" target="nWkcbd3g35BIflJlZbBs-60">
          <mxGeometry width="50" height="50" relative="1" as="geometry">
            <mxPoint x="1965" y="550" as="sourcePoint" />
            <mxPoint x="1965" y="520" as="targetPoint" />
          </mxGeometry>
        </mxCell>
        <mxCell id="nWkcbd3g35BIflJlZbBs-89" value="" style="endArrow=none;html=1;rounded=0;exitX=0.5;exitY=0;exitDx=0;exitDy=0;entryX=0.5;entryY=1;entryDx=0;entryDy=0;" edge="1" parent="1" source="nWkcbd3g35BIflJlZbBs-62" target="nWkcbd3g35BIflJlZbBs-56">
          <mxGeometry width="50" height="50" relative="1" as="geometry">
            <mxPoint x="1880" y="410" as="sourcePoint" />
            <mxPoint x="1930" y="360" as="targetPoint" />
          </mxGeometry>
        </mxCell>
        <mxCell id="nWkcbd3g35BIflJlZbBs-90" value="" style="endArrow=none;html=1;rounded=0;exitX=0.5;exitY=0;exitDx=0;exitDy=0;entryX=0.5;entryY=1;entryDx=0;entryDy=0;" edge="1" parent="1" source="nWkcbd3g35BIflJlZbBs-61" target="nWkcbd3g35BIflJlZbBs-55">
          <mxGeometry width="50" height="50" relative="1" as="geometry">
            <mxPoint x="1845" y="435" as="sourcePoint" />
            <mxPoint x="1845" y="400" as="targetPoint" />
          </mxGeometry>
        </mxCell>
        <mxCell id="nWkcbd3g35BIflJlZbBs-93" value="" style="endArrow=none;html=1;rounded=0;exitX=0.5;exitY=0;exitDx=0;exitDy=0;entryX=0.5;entryY=1;entryDx=0;entryDy=0;" edge="1" parent="1" source="nWkcbd3g35BIflJlZbBs-2" target="nWkcbd3g35BIflJlZbBs-1">
          <mxGeometry width="50" height="50" relative="1" as="geometry">
            <mxPoint x="760" y="390" as="sourcePoint" />
            <mxPoint x="810" y="340" as="targetPoint" />
          </mxGeometry>
        </mxCell>
        <mxCell id="nWkcbd3g35BIflJlZbBs-96" value="" style="endArrow=none;html=1;rounded=0;exitX=0.5;exitY=0;exitDx=0;exitDy=0;entryX=0.5;entryY=1;entryDx=0;entryDy=0;" edge="1" parent="1" source="nWkcbd3g35BIflJlZbBs-3" target="nWkcbd3g35BIflJlZbBs-1">
          <mxGeometry width="50" height="50" relative="1" as="geometry">
            <mxPoint x="150" y="190" as="sourcePoint" />
            <mxPoint x="1390" y="-60" as="targetPoint" />
          </mxGeometry>
        </mxCell>
        <mxCell id="nWkcbd3g35BIflJlZbBs-97" value="" style="endArrow=none;html=1;rounded=0;exitX=0.5;exitY=0;exitDx=0;exitDy=0;entryX=0.5;entryY=1;entryDx=0;entryDy=0;" edge="1" parent="1" source="nWkcbd3g35BIflJlZbBs-5" target="nWkcbd3g35BIflJlZbBs-1">
          <mxGeometry width="50" height="50" relative="1" as="geometry">
            <mxPoint x="160" y="200" as="sourcePoint" />
            <mxPoint x="1400" y="-50" as="targetPoint" />
          </mxGeometry>
        </mxCell>
        <mxCell id="nWkcbd3g35BIflJlZbBs-98" value="" style="endArrow=none;html=1;rounded=0;exitX=0.5;exitY=0;exitDx=0;exitDy=0;entryX=0.5;entryY=1;entryDx=0;entryDy=0;" edge="1" parent="1" source="nWkcbd3g35BIflJlZbBs-4" target="nWkcbd3g35BIflJlZbBs-1">
          <mxGeometry width="50" height="50" relative="1" as="geometry">
            <mxPoint x="930" y="200" as="sourcePoint" />
            <mxPoint x="1390" y="-60" as="targetPoint" />
          </mxGeometry>
        </mxCell>
        <mxCell id="nWkcbd3g35BIflJlZbBs-99" value="" style="endArrow=none;html=1;rounded=0;exitX=0.5;exitY=0;exitDx=0;exitDy=0;entryX=0.5;entryY=1;entryDx=0;entryDy=0;" edge="1" parent="1" source="nWkcbd3g35BIflJlZbBs-6" target="nWkcbd3g35BIflJlZbBs-1">
          <mxGeometry width="50" height="50" relative="1" as="geometry">
            <mxPoint x="940" y="210" as="sourcePoint" />
            <mxPoint x="1400" y="-50" as="targetPoint" />
          </mxGeometry>
        </mxCell>
        <mxCell id="nWkcbd3g35BIflJlZbBs-100" value="" style="endArrow=none;html=1;rounded=0;exitX=0.5;exitY=0;exitDx=0;exitDy=0;entryX=0.5;entryY=1;entryDx=0;entryDy=0;" edge="1" parent="1" source="nWkcbd3g35BIflJlZbBs-66" target="nWkcbd3g35BIflJlZbBs-1">
          <mxGeometry width="50" height="50" relative="1" as="geometry">
            <mxPoint x="1760" y="220" as="sourcePoint" />
            <mxPoint x="1390" y="-60" as="targetPoint" />
          </mxGeometry>
        </mxCell>
        <mxCell id="nWkcbd3g35BIflJlZbBs-101" value="" style="endArrow=none;html=1;rounded=0;exitX=1;exitY=0;exitDx=0;exitDy=0;entryX=0;entryY=1;entryDx=0;entryDy=0;" edge="1" parent="1" source="nWkcbd3g35BIflJlZbBs-42" target="nWkcbd3g35BIflJlZbBs-4">
          <mxGeometry width="50" height="50" relative="1" as="geometry">
            <mxPoint x="1200" y="320" as="sourcePoint" />
            <mxPoint x="1250" y="270" as="targetPoint" />
          </mxGeometry>
        </mxCell>
        <mxCell id="nWkcbd3g35BIflJlZbBs-102" value="" style="endArrow=none;html=1;rounded=0;entryX=1;entryY=1;entryDx=0;entryDy=0;exitX=0;exitY=0;exitDx=0;exitDy=0;" edge="1" parent="1" source="nWkcbd3g35BIflJlZbBs-43" target="nWkcbd3g35BIflJlZbBs-4">
          <mxGeometry width="50" height="50" relative="1" as="geometry">
            <mxPoint x="1200" y="320" as="sourcePoint" />
            <mxPoint x="1250" y="270" as="targetPoint" />
          </mxGeometry>
        </mxCell>
        <mxCell id="nWkcbd3g35BIflJlZbBs-103" value="" style="endArrow=none;html=1;rounded=0;entryX=0;entryY=0.5;entryDx=0;entryDy=0;exitX=1;exitY=0;exitDx=0;exitDy=0;" edge="1" parent="1" source="nWkcbd3g35BIflJlZbBs-54" target="nWkcbd3g35BIflJlZbBs-6">
          <mxGeometry width="50" height="50" relative="1" as="geometry">
            <mxPoint x="1430" y="320" as="sourcePoint" />
            <mxPoint x="1480" y="270" as="targetPoint" />
          </mxGeometry>
        </mxCell>
        <mxCell id="nWkcbd3g35BIflJlZbBs-104" value="" style="endArrow=none;dashed=1;html=1;rounded=0;entryX=0.5;entryY=1;entryDx=0;entryDy=0;edgeStyle=orthogonalEdgeStyle;" edge="1" parent="1" target="nWkcbd3g35BIflJlZbBs-67">
          <mxGeometry width="50" height="50" relative="1" as="geometry">
            <mxPoint x="1580" y="670" as="sourcePoint" />
            <mxPoint x="2080" y="480" as="targetPoint" />
          </mxGeometry>
        </mxCell>
        <mxCell id="nWkcbd3g35BIflJlZbBs-107" value="" style="endArrow=none;html=1;rounded=0;entryX=0.5;entryY=0;entryDx=0;entryDy=0;exitX=0.5;exitY=1;exitDx=0;exitDy=0;" edge="1" parent="1" source="nWkcbd3g35BIflJlZbBs-4" target="nWkcbd3g35BIflJlZbBs-44">
          <mxGeometry width="50" height="50" relative="1" as="geometry">
            <mxPoint x="1210" y="570" as="sourcePoint" />
            <mxPoint x="1260" y="520" as="targetPoint" />
          </mxGeometry>
        </mxCell>
        <mxCell id="nWkcbd3g35BIflJlZbBs-110" value="" style="endArrow=none;html=1;rounded=0;entryX=0.5;entryY=1;entryDx=0;entryDy=0;exitX=0.5;exitY=0;exitDx=0;exitDy=0;" edge="1" parent="1" source="nWkcbd3g35BIflJlZbBs-50" target="nWkcbd3g35BIflJlZbBs-44">
          <mxGeometry width="50" height="50" relative="1" as="geometry">
            <mxPoint x="1210" y="570" as="sourcePoint" />
            <mxPoint x="1260" y="520" as="targetPoint" />
          </mxGeometry>
        </mxCell>
        <mxCell id="nWkcbd3g35BIflJlZbBs-111" value="" style="endArrow=none;html=1;rounded=0;entryX=0.5;entryY=1;entryDx=0;entryDy=0;exitX=0.5;exitY=0;exitDx=0;exitDy=0;" edge="1" parent="1" source="nWkcbd3g35BIflJlZbBs-51" target="nWkcbd3g35BIflJlZbBs-47">
          <mxGeometry width="50" height="50" relative="1" as="geometry">
            <mxPoint x="1210" y="570" as="sourcePoint" />
            <mxPoint x="1260" y="520" as="targetPoint" />
          </mxGeometry>
        </mxCell>
        <mxCell id="nWkcbd3g35BIflJlZbBs-112" value="" style="endArrow=none;html=1;rounded=0;entryX=0.5;entryY=1;entryDx=0;entryDy=0;exitX=0.5;exitY=0;exitDx=0;exitDy=0;" edge="1" parent="1" source="nWkcbd3g35BIflJlZbBs-52" target="nWkcbd3g35BIflJlZbBs-48">
          <mxGeometry width="50" height="50" relative="1" as="geometry">
            <mxPoint x="1210" y="570" as="sourcePoint" />
            <mxPoint x="1260" y="520" as="targetPoint" />
          </mxGeometry>
        </mxCell>
        <mxCell id="nWkcbd3g35BIflJlZbBs-113" value="" style="endArrow=none;html=1;rounded=0;entryX=0.5;entryY=1;entryDx=0;entryDy=0;exitX=1;exitY=0;exitDx=0;exitDy=0;" edge="1" parent="1" source="nWkcbd3g35BIflJlZbBs-7" target="nWkcbd3g35BIflJlZbBs-2">
          <mxGeometry width="50" height="50" relative="1" as="geometry">
            <mxPoint x="190" y="570" as="sourcePoint" />
            <mxPoint x="240" y="520" as="targetPoint" />
          </mxGeometry>
        </mxCell>
        <mxCell id="nWkcbd3g35BIflJlZbBs-114" value="" style="endArrow=none;html=1;rounded=0;entryX=0.5;entryY=1;entryDx=0;entryDy=0;exitX=0.5;exitY=0;exitDx=0;exitDy=0;" edge="1" parent="1" source="nWkcbd3g35BIflJlZbBs-8" target="nWkcbd3g35BIflJlZbBs-2">
          <mxGeometry width="50" height="50" relative="1" as="geometry">
            <mxPoint x="-17" y="235" as="sourcePoint" />
            <mxPoint x="150" y="230" as="targetPoint" />
          </mxGeometry>
        </mxCell>
        <mxCell id="nWkcbd3g35BIflJlZbBs-115" value="" style="endArrow=none;html=1;rounded=0;entryX=0.5;entryY=1;entryDx=0;entryDy=0;exitX=0.5;exitY=0;exitDx=0;exitDy=0;" edge="1" parent="1" source="nWkcbd3g35BIflJlZbBs-9" target="nWkcbd3g35BIflJlZbBs-2">
          <mxGeometry width="50" height="50" relative="1" as="geometry">
            <mxPoint x="-25" y="340" as="sourcePoint" />
            <mxPoint x="150" y="230" as="targetPoint" />
          </mxGeometry>
        </mxCell>
        <mxCell id="nWkcbd3g35BIflJlZbBs-116" value="" style="endArrow=none;html=1;rounded=0;entryX=0.5;entryY=1;entryDx=0;entryDy=0;exitX=0.5;exitY=0;exitDx=0;exitDy=0;" edge="1" parent="1" source="nWkcbd3g35BIflJlZbBs-10" target="nWkcbd3g35BIflJlZbBs-2">
          <mxGeometry width="50" height="50" relative="1" as="geometry">
            <mxPoint x="145" y="350" as="sourcePoint" />
            <mxPoint x="150" y="230" as="targetPoint" />
          </mxGeometry>
        </mxCell>
        <mxCell id="nWkcbd3g35BIflJlZbBs-117" value="" style="endArrow=none;html=1;rounded=0;entryX=0.5;entryY=1;entryDx=0;entryDy=0;exitX=0.5;exitY=0;exitDx=0;exitDy=0;" edge="1" parent="1" source="nWkcbd3g35BIflJlZbBs-12" target="nWkcbd3g35BIflJlZbBs-9">
          <mxGeometry width="50" height="50" relative="1" as="geometry">
            <mxPoint x="155" y="360" as="sourcePoint" />
            <mxPoint x="160" y="240" as="targetPoint" />
          </mxGeometry>
        </mxCell>
        <mxCell id="nWkcbd3g35BIflJlZbBs-118" value="" style="endArrow=none;html=1;rounded=0;entryX=0.5;entryY=1;entryDx=0;entryDy=0;exitX=0.5;exitY=0;exitDx=0;exitDy=0;" edge="1" parent="1" source="nWkcbd3g35BIflJlZbBs-13" target="nWkcbd3g35BIflJlZbBs-9">
          <mxGeometry width="50" height="50" relative="1" as="geometry">
            <mxPoint x="165" y="370" as="sourcePoint" />
            <mxPoint x="170" y="250" as="targetPoint" />
          </mxGeometry>
        </mxCell>
        <mxCell id="nWkcbd3g35BIflJlZbBs-119" value="" style="endArrow=none;html=1;rounded=0;entryX=0.5;entryY=1;entryDx=0;entryDy=0;exitX=0.5;exitY=0;exitDx=0;exitDy=0;" edge="1" parent="1" source="nWkcbd3g35BIflJlZbBs-11" target="nWkcbd3g35BIflJlZbBs-9">
          <mxGeometry width="50" height="50" relative="1" as="geometry">
            <mxPoint x="175" y="380" as="sourcePoint" />
            <mxPoint x="180" y="260" as="targetPoint" />
          </mxGeometry>
        </mxCell>
        <mxCell id="nWkcbd3g35BIflJlZbBs-120" value="" style="endArrow=none;html=1;rounded=0;entryX=0.5;entryY=1;entryDx=0;entryDy=0;exitX=0.5;exitY=0;exitDx=0;exitDy=0;" edge="1" parent="1" source="nWkcbd3g35BIflJlZbBs-19" target="nWkcbd3g35BIflJlZbBs-8">
          <mxGeometry width="50" height="50" relative="1" as="geometry">
            <mxPoint x="185" y="390" as="sourcePoint" />
            <mxPoint x="190" y="270" as="targetPoint" />
          </mxGeometry>
        </mxCell>
        <mxCell id="nWkcbd3g35BIflJlZbBs-121" value="" style="endArrow=none;html=1;rounded=0;entryX=0.5;entryY=1;entryDx=0;entryDy=0;exitX=0.5;exitY=0;exitDx=0;exitDy=0;" edge="1" parent="1" source="nWkcbd3g35BIflJlZbBs-16" target="nWkcbd3g35BIflJlZbBs-11">
          <mxGeometry width="50" height="50" relative="1" as="geometry">
            <mxPoint x="195" y="400" as="sourcePoint" />
            <mxPoint x="200" y="280" as="targetPoint" />
          </mxGeometry>
        </mxCell>
        <mxCell id="nWkcbd3g35BIflJlZbBs-122" value="" style="endArrow=none;html=1;rounded=0;entryX=0.5;entryY=1;entryDx=0;entryDy=0;exitX=0.5;exitY=0;exitDx=0;exitDy=0;" edge="1" parent="1" source="nWkcbd3g35BIflJlZbBs-17" target="nWkcbd3g35BIflJlZbBs-12">
          <mxGeometry width="50" height="50" relative="1" as="geometry">
            <mxPoint x="205" y="410" as="sourcePoint" />
            <mxPoint x="210" y="290" as="targetPoint" />
          </mxGeometry>
        </mxCell>
        <mxCell id="nWkcbd3g35BIflJlZbBs-123" value="" style="endArrow=none;html=1;rounded=0;entryX=0.5;entryY=1;entryDx=0;entryDy=0;exitX=0.5;exitY=0;exitDx=0;exitDy=0;" edge="1" parent="1" source="nWkcbd3g35BIflJlZbBs-18" target="nWkcbd3g35BIflJlZbBs-13">
          <mxGeometry width="50" height="50" relative="1" as="geometry">
            <mxPoint x="215" y="420" as="sourcePoint" />
            <mxPoint x="220" y="300" as="targetPoint" />
          </mxGeometry>
        </mxCell>
        <mxCell id="nWkcbd3g35BIflJlZbBs-124" value="Vegzettseg" style="ellipse;shape=doubleEllipse;margin=3;whiteSpace=wrap;html=1;align=center;" vertex="1" parent="1">
          <mxGeometry x="600" y="340" width="100" height="40" as="geometry" />
        </mxCell>
        <mxCell id="nWkcbd3g35BIflJlZbBs-125" value="" style="endArrow=none;html=1;rounded=0;entryX=0.5;entryY=1;entryDx=0;entryDy=0;exitX=0.5;exitY=0;exitDx=0;exitDy=0;" edge="1" parent="1" source="nWkcbd3g35BIflJlZbBs-20" target="nWkcbd3g35BIflJlZbBs-10">
          <mxGeometry width="50" height="50" relative="1" as="geometry">
            <mxPoint x="-35" y="440" as="sourcePoint" />
            <mxPoint x="-25" y="380" as="targetPoint" />
          </mxGeometry>
        </mxCell>
        <mxCell id="nWkcbd3g35BIflJlZbBs-126" value="" style="endArrow=none;html=1;rounded=0;entryX=1;entryY=0;entryDx=0;entryDy=0;exitX=0;exitY=0.5;exitDx=0;exitDy=0;" edge="1" parent="1" source="nWkcbd3g35BIflJlZbBs-3" target="nWkcbd3g35BIflJlZbBs-21">
          <mxGeometry width="50" height="50" relative="1" as="geometry">
            <mxPoint x="325" y="430" as="sourcePoint" />
            <mxPoint x="305" y="380" as="targetPoint" />
          </mxGeometry>
        </mxCell>
        <mxCell id="nWkcbd3g35BIflJlZbBs-127" value="" style="endArrow=none;html=1;rounded=0;entryX=1;entryY=0.5;entryDx=0;entryDy=0;exitX=0;exitY=0;exitDx=0;exitDy=0;" edge="1" parent="1" source="nWkcbd3g35BIflJlZbBs-22" target="nWkcbd3g35BIflJlZbBs-3">
          <mxGeometry width="50" height="50" relative="1" as="geometry">
            <mxPoint x="335" y="440" as="sourcePoint" />
            <mxPoint x="315" y="390" as="targetPoint" />
          </mxGeometry>
        </mxCell>
        <mxCell id="nWkcbd3g35BIflJlZbBs-128" value="" style="endArrow=none;html=1;rounded=0;entryX=0.5;entryY=1;entryDx=0;entryDy=0;exitX=0.5;exitY=0;exitDx=0;exitDy=0;" edge="1" parent="1" source="nWkcbd3g35BIflJlZbBs-23" target="nWkcbd3g35BIflJlZbBs-3">
          <mxGeometry width="50" height="50" relative="1" as="geometry">
            <mxPoint x="345" y="450" as="sourcePoint" />
            <mxPoint x="325" y="400" as="targetPoint" />
          </mxGeometry>
        </mxCell>
        <mxCell id="nWkcbd3g35BIflJlZbBs-129" value="" style="endArrow=none;html=1;rounded=0;entryX=0.5;entryY=1;entryDx=0;entryDy=0;exitX=0.5;exitY=0;exitDx=0;exitDy=0;" edge="1" parent="1" source="nWkcbd3g35BIflJlZbBs-24" target="nWkcbd3g35BIflJlZbBs-3">
          <mxGeometry width="50" height="50" relative="1" as="geometry">
            <mxPoint x="355" y="460" as="sourcePoint" />
            <mxPoint x="335" y="410" as="targetPoint" />
          </mxGeometry>
        </mxCell>
        <mxCell id="nWkcbd3g35BIflJlZbBs-130" value="" style="endArrow=none;html=1;rounded=0;entryX=0.5;entryY=1;entryDx=0;entryDy=0;exitX=0.5;exitY=0;exitDx=0;exitDy=0;" edge="1" parent="1" source="nWkcbd3g35BIflJlZbBs-124" target="nWkcbd3g35BIflJlZbBs-3">
          <mxGeometry width="50" height="50" relative="1" as="geometry">
            <mxPoint x="365" y="470" as="sourcePoint" />
            <mxPoint x="345" y="420" as="targetPoint" />
          </mxGeometry>
        </mxCell>
        <mxCell id="nWkcbd3g35BIflJlZbBs-131" value="" style="endArrow=none;html=1;rounded=0;entryX=0.5;entryY=1;entryDx=0;entryDy=0;exitX=0.5;exitY=0;exitDx=0;exitDy=0;" edge="1" parent="1" source="nWkcbd3g35BIflJlZbBs-35" target="nWkcbd3g35BIflJlZbBs-23">
          <mxGeometry width="50" height="50" relative="1" as="geometry">
            <mxPoint x="375" y="480" as="sourcePoint" />
            <mxPoint x="355" y="430" as="targetPoint" />
          </mxGeometry>
        </mxCell>
        <mxCell id="nWkcbd3g35BIflJlZbBs-132" value="" style="endArrow=none;html=1;rounded=0;entryX=0.5;entryY=1;entryDx=0;entryDy=0;exitX=0.5;exitY=0;exitDx=0;exitDy=0;" edge="1" parent="1" source="nWkcbd3g35BIflJlZbBs-36" target="nWkcbd3g35BIflJlZbBs-24">
          <mxGeometry width="50" height="50" relative="1" as="geometry">
            <mxPoint x="385" y="490" as="sourcePoint" />
            <mxPoint x="365" y="440" as="targetPoint" />
          </mxGeometry>
        </mxCell>
        <mxCell id="nWkcbd3g35BIflJlZbBs-133" value="" style="endArrow=none;html=1;rounded=0;entryX=0.5;entryY=1;entryDx=0;entryDy=0;exitX=0.5;exitY=0;exitDx=0;exitDy=0;" edge="1" parent="1" source="nWkcbd3g35BIflJlZbBs-37" target="nWkcbd3g35BIflJlZbBs-124">
          <mxGeometry width="50" height="50" relative="1" as="geometry">
            <mxPoint x="395" y="500" as="sourcePoint" />
            <mxPoint x="375" y="450" as="targetPoint" />
          </mxGeometry>
        </mxCell>
        <mxCell id="nWkcbd3g35BIflJlZbBs-134" value="" style="endArrow=none;html=1;rounded=0;entryX=0.5;entryY=1;entryDx=0;entryDy=0;exitX=0.5;exitY=0;exitDx=0;exitDy=0;" edge="1" parent="1" source="nWkcbd3g35BIflJlZbBs-31" target="nWkcbd3g35BIflJlZbBs-5">
          <mxGeometry width="50" height="50" relative="1" as="geometry">
            <mxPoint x="830" y="310" as="sourcePoint" />
            <mxPoint x="880" y="260" as="targetPoint" />
          </mxGeometry>
        </mxCell>
        <mxCell id="nWkcbd3g35BIflJlZbBs-135" value="" style="endArrow=none;html=1;rounded=0;exitX=0.5;exitY=0;exitDx=0;exitDy=0;entryX=0.5;entryY=1;entryDx=0;entryDy=0;" edge="1" parent="1" source="nWkcbd3g35BIflJlZbBs-32" target="nWkcbd3g35BIflJlZbBs-28">
          <mxGeometry width="50" height="50" relative="1" as="geometry">
            <mxPoint x="830" y="310" as="sourcePoint" />
            <mxPoint x="880" y="260" as="targetPoint" />
          </mxGeometry>
        </mxCell>
        <mxCell id="nWkcbd3g35BIflJlZbBs-136" value="" style="endArrow=none;html=1;rounded=0;entryX=0.5;entryY=1;entryDx=0;entryDy=0;exitX=0.5;exitY=0;exitDx=0;exitDy=0;" edge="1" parent="1" source="nWkcbd3g35BIflJlZbBs-33" target="nWkcbd3g35BIflJlZbBs-29">
          <mxGeometry width="50" height="50" relative="1" as="geometry">
            <mxPoint x="830" y="310" as="sourcePoint" />
            <mxPoint x="880" y="260" as="targetPoint" />
          </mxGeometry>
        </mxCell>
        <mxCell id="nWkcbd3g35BIflJlZbBs-137" value="" style="endArrow=none;html=1;rounded=0;entryX=0.5;entryY=1;entryDx=0;entryDy=0;exitX=0.5;exitY=0;exitDx=0;exitDy=0;" edge="1" parent="1" source="nWkcbd3g35BIflJlZbBs-34" target="nWkcbd3g35BIflJlZbBs-31">
          <mxGeometry width="50" height="50" relative="1" as="geometry">
            <mxPoint x="830" y="310" as="sourcePoint" />
            <mxPoint x="880" y="260" as="targetPoint" />
          </mxGeometry>
        </mxCell>
        <mxCell id="nWkcbd3g35BIflJlZbBs-138" value="" style="endArrow=none;html=1;rounded=0;entryX=0.5;entryY=1;entryDx=0;entryDy=0;exitX=0.5;exitY=0;exitDx=0;exitDy=0;" edge="1" parent="1" source="nWkcbd3g35BIflJlZbBs-49" target="nWkcbd3g35BIflJlZbBs-46">
          <mxGeometry width="50" height="50" relative="1" as="geometry">
            <mxPoint x="1080" y="310" as="sourcePoint" />
            <mxPoint x="1130" y="260" as="targetPoint" />
          </mxGeometry>
        </mxCell>
        <mxCell id="nWkcbd3g35BIflJlZbBs-139" value="" style="endArrow=none;html=1;rounded=0;entryX=0.5;entryY=1;entryDx=0;entryDy=0;exitX=0.5;exitY=0;exitDx=0;exitDy=0;" edge="1" parent="1" source="nWkcbd3g35BIflJlZbBs-46" target="nWkcbd3g35BIflJlZbBs-4">
          <mxGeometry width="50" height="50" relative="1" as="geometry">
            <mxPoint x="1080" y="310" as="sourcePoint" />
            <mxPoint x="1130" y="260" as="targetPoint" />
          </mxGeometry>
        </mxCell>
        <mxCell id="nWkcbd3g35BIflJlZbBs-140" value="" style="endArrow=none;html=1;rounded=0;entryX=0.5;entryY=1;entryDx=0;entryDy=0;exitX=0.5;exitY=0;exitDx=0;exitDy=0;" edge="1" parent="1" source="nWkcbd3g35BIflJlZbBs-45" target="nWkcbd3g35BIflJlZbBs-4">
          <mxGeometry width="50" height="50" relative="1" as="geometry">
            <mxPoint x="1080" y="310" as="sourcePoint" />
            <mxPoint x="1130" y="260" as="targetPoint" />
          </mxGeometry>
        </mxCell>
        <mxCell id="nWkcbd3g35BIflJlZbBs-141" value="" style="endArrow=none;html=1;rounded=0;entryX=0.5;entryY=1;entryDx=0;entryDy=0;exitX=0.5;exitY=0;exitDx=0;exitDy=0;" edge="1" parent="1" source="nWkcbd3g35BIflJlZbBs-47" target="nWkcbd3g35BIflJlZbBs-45">
          <mxGeometry width="50" height="50" relative="1" as="geometry">
            <mxPoint x="1080" y="310" as="sourcePoint" />
            <mxPoint x="1130" y="260" as="targetPoint" />
          </mxGeometry>
        </mxCell>
        <mxCell id="nWkcbd3g35BIflJlZbBs-142" value="" style="endArrow=none;html=1;rounded=0;entryX=0.5;entryY=1;entryDx=0;entryDy=0;exitX=0.5;exitY=0;exitDx=0;exitDy=0;" edge="1" parent="1" source="nWkcbd3g35BIflJlZbBs-48" target="nWkcbd3g35BIflJlZbBs-45">
          <mxGeometry width="50" height="50" relative="1" as="geometry">
            <mxPoint x="1080" y="310" as="sourcePoint" />
            <mxPoint x="1130" y="260" as="targetPoint" />
          </mxGeometry>
        </mxCell>
        <mxCell id="nWkcbd3g35BIflJlZbBs-146" value="" style="endArrow=none;dashed=1;html=1;rounded=0;entryX=0.5;entryY=1;entryDx=0;entryDy=0;" edge="1" parent="1" target="nWkcbd3g35BIflJlZbBs-54">
          <mxGeometry width="50" height="50" relative="1" as="geometry">
            <mxPoint x="1580" y="670" as="sourcePoint" />
            <mxPoint x="2130" y="260" as="targetPoint" />
          </mxGeometry>
        </mxCell>
        <mxCell id="nWkcbd3g35BIflJlZbBs-147" value="" style="endArrow=none;dashed=1;html=1;dashPattern=1 3;strokeWidth=2;rounded=0;entryX=0.5;entryY=1;entryDx=0;entryDy=0;edgeStyle=orthogonalEdgeStyle;" edge="1" parent="1" target="nWkcbd3g35BIflJlZbBs-72">
          <mxGeometry width="50" height="50" relative="1" as="geometry">
            <mxPoint x="-280" y="930" as="sourcePoint" />
            <mxPoint x="2660" y="370" as="targetPoint" />
          </mxGeometry>
        </mxCell>
        <mxCell id="nWkcbd3g35BIflJlZbBs-148" value="" style="endArrow=none;dashed=1;html=1;dashPattern=1 3;strokeWidth=2;rounded=0;" edge="1" parent="1">
          <mxGeometry width="50" height="50" relative="1" as="geometry">
            <mxPoint x="-280" y="920" as="sourcePoint" />
            <mxPoint x="-280" y="210" as="targetPoint" />
          </mxGeometry>
        </mxCell>
        <mxCell id="nWkcbd3g35BIflJlZbBs-149" value="" style="endArrow=none;dashed=1;html=1;dashPattern=1 3;strokeWidth=2;rounded=0;entryX=0.5;entryY=0;entryDx=0;entryDy=0;strokeColor=default;" edge="1" parent="1" target="nWkcbd3g35BIflJlZbBs-7">
          <mxGeometry width="50" height="50" relative="1" as="geometry">
            <mxPoint x="-280" y="210" as="sourcePoint" />
            <mxPoint x="-170" y="430" as="targetPoint" />
          </mxGeometry>
        </mxCell>
        <mxCell id="nWkcbd3g35BIflJlZbBs-150" value="" style="endArrow=classic;html=1;rounded=0;" edge="1" parent="1">
          <mxGeometry width="50" height="50" relative="1" as="geometry">
            <mxPoint x="-170" y="430" as="sourcePoint" />
            <mxPoint x="-170" y="430" as="targetPoint" />
          </mxGeometry>
        </mxCell>
      </root>
    </mxGraphModel>
  </diagram>
</mxfile>
